<?xml version="1.0" encoding="UTF-8"?><svg id="Layer_1" xmlns="http://www.w3.org/2000/svg" xmlns:xlink="http://www.w3.org/1999/xlink" viewBox="0 0 216 200.79"><defs><style>.cls-1{fill:none;}.cls-2{fill:url(#linear-gradient);}.cls-3{clip-path:url(#clippath);}.cls-4{fill:#fff;}.cls-5{clip-path:url(#clippath-1);}.cls-6{fill:url(#linear-gradient-2);}</style><clipPath id="clippath"><path class="cls-1" d="M23.1,4.33C12.92,4.33,4.66,12.58,4.66,22.77v111.1c0,34.56,28.02,62.58,62.59,62.58h125.65c10.19,0,18.44-8.26,18.44-18.43V66.91c0-34.56-28.02-62.58-62.58-62.58H23.1Z"/></clipPath><linearGradient id="linear-gradient" x1="2.6" y1="245.06" x2="7.49" y2="245.06" gradientTransform="translate(347.26 -11573.31) rotate(-180) scale(47.64 -47.64)" gradientUnits="userSpaceOnUse"><stop offset="0" stop-color="#67328e"/><stop offset="1" stop-color="#e92829"/></linearGradient><clipPath id="clippath-1"><path class="cls-1" d="M90.88,119.44l53.03,38.02c5.17,3.7,11.24,5.68,17.61,5.68h10.35c-3.57-7.14-8.71-13.36-15.05-18.22-10.4-7.97-25.54-19.56-25.58-19.57l-9.95-7.14,30.22-24.74c8.61-7.33,13.57-17.98,13.6-29.3v-8.49l-74.24,63.78Z"/></clipPath><linearGradient id="linear-gradient-2" x1="2.12" y1="245.02" x2="7.01" y2="245.02" gradientTransform="translate(55.72 4169.5) scale(16.57 -16.57)" gradientUnits="userSpaceOnUse"><stop offset="0" stop-color="#ef5527"/><stop offset="1" stop-color="#f9da09"/></linearGradient></defs><g class="cls-3"><rect class="cls-2" x="-33" y="-40.6" width="281.99" height="281.99" transform="translate(-39.36 105.77) rotate(-45)"/></g><path class="cls-4" d="M144,107.37l-15,11.88,3.5,7.04-11.2-8.09,30.22-24.75c8.62-7.3,13.58-17.99,13.6-29.31v-8.47l-32.72,28.49-23.27-46.52h-2.26l-62.75,125.48H109.94l-3.86-8.82c-2.63-6.02-8.58-9.91-15.16-9.91h-16.5l33.58-67.15,9.71,19.42-26.83,22.76,53.03,38.04c5.16,3.7,11.25,5.66,17.61,5.66h10.35l-27.88-55.76Z"/><g class="cls-5"><rect class="cls-6" x="90.88" y="55.66" width="80.99" height="107.47"/></g></svg>