<?xml version="1.0" encoding="UTF-8"?><svg id="Layer_1" xmlns="http://www.w3.org/2000/svg" xmlns:xlink="http://www.w3.org/1999/xlink" viewBox="0 0 228.27 47.63"><defs><style>.cls-1{fill:url(#linear-gradient);}.cls-2{fill:url(#linear-gradient-2);}</style><linearGradient id="linear-gradient" x1="46.16" y1="-4.14" x2="46.16" y2="40.33" gradientTransform="matrix(1, 0, 0, 1, 0, 0)" gradientUnits="userSpaceOnUse"><stop offset="0" stop-color="#67328e"/><stop offset="1" stop-color="#e92729"/></linearGradient><linearGradient id="linear-gradient-2" x1="155.2" y1="63.8" x2="155.2" y2="13.48" gradientTransform="matrix(1, 0, 0, 1, 0, 0)" gradientUnits="userSpaceOnUse"><stop offset="0" stop-color="#ef5527"/><stop offset="1" stop-color="#f9da09"/></linearGradient></defs><path class="cls-1" d="M17.51,19.82c-.83,0-1.57,.07-2.21,.21-.64,.14-1.2,.31-1.68,.49-.47,.19-.87,.39-1.18,.6-.32,.21-.57,.39-.77,.54-.32-.2-.59-.49-.82-.86-.23-.37-.34-.8-.34-1.29s.14-.89,.41-1.22c.27-.33,.64-.61,1.1-.84,.49-.23,1.16-.45,2.02-.67s1.93-.32,3.22-.32c1.72,0,3.26,.16,4.64,.47,1.37,.32,2.54,.84,3.5,1.57,.96,.73,1.7,1.68,2.21,2.86,.52,1.17,.77,2.61,.77,4.3v12.84c-.52,.11-1.6,.26-3.24,.45-1.65,.19-3.79,.28-6.42,.28-2.15,0-3.89-.19-5.22-.58s-2.37-.9-3.11-1.55c-.74-.64-1.25-1.38-1.5-2.21-.26-.83-.39-1.69-.39-2.58,0-1.12,.17-2.12,.52-3.01,.34-.89,.9-1.63,1.68-2.23,.77-.6,1.8-1.07,3.07-1.4,1.27-.33,2.84-.49,4.7-.49,1.29,0,2.46,.03,3.5,.09,1.05,.06,1.74,.11,2.08,.17v-.21c0-.46-.04-.89-.13-1.29-.23-1.35-.85-2.37-1.87-3.07-1.02-.7-2.53-1.05-4.53-1.05Zm6.49,8.72c-.09-.03-.3-.06-.64-.09-.34-.03-.76-.06-1.25-.11-.49-.04-1.01-.08-1.57-.11-.56-.03-1.1-.04-1.61-.04-2.15,0-3.69,.33-4.62,.99-.93,.66-1.4,1.68-1.4,3.05,0,.57,.09,1.1,.26,1.59,.17,.49,.49,.9,.95,1.25,.46,.34,1.07,.61,1.85,.79,.77,.19,1.75,.28,2.92,.28,1.46,0,2.61-.06,3.44-.17,.83-.11,1.39-.21,1.68-.3v-7.13Zm11.68-19.55c0-.69,.21-1.2,.62-1.52,.41-.33,.99-.49,1.74-.49,.49,0,.92,.06,1.31,.17,.39,.11,.65,.2,.79,.26v31.23h-4.47V9Zm17.53,11.77v11.08c0,1.43,.31,2.41,.95,2.94,.63,.53,1.49,.79,2.58,.79,.46,0,.89-.05,1.29-.15,.4-.1,.76-.22,1.07-.37,.31-.14,.57-.28,.77-.41,.2-.13,.34-.22,.43-.28l1.72,2.75c-.11,.09-.33,.25-.64,.49-.32,.24-.73,.48-1.25,.71-.52,.23-1.14,.44-1.87,.62-.73,.19-1.55,.28-2.47,.28-1.23,0-2.29-.17-3.18-.52-.89-.34-1.62-.82-2.19-1.44-.57-.62-1-1.34-1.27-2.17-.27-.83-.41-1.73-.41-2.71v-11.64h-1.98c-1.37,0-2.06-.62-2.06-1.85,0-.46,.07-.85,.21-1.18,.14-.33,.24-.55,.3-.67h3.52v-4.68c0-.69,.21-1.2,.62-1.52,.41-.33,.99-.49,1.74-.49,.49,0,.92,.06,1.31,.17,.39,.11,.65,.2,.79,.26v6.27h5.5c1.35,0,2.02,.62,2.02,1.85,0,.46-.06,.85-.19,1.18-.13,.33-.22,.55-.28,.67h-7.04Zm19.76-.95c-.83,0-1.57,.07-2.21,.21-.64,.14-1.2,.31-1.68,.49-.47,.19-.87,.39-1.18,.6s-.57,.39-.77,.54c-.32-.2-.59-.49-.82-.86-.23-.37-.34-.8-.34-1.29s.14-.89,.41-1.22c.27-.33,.64-.61,1.09-.84,.49-.23,1.16-.45,2.02-.67,.86-.21,1.93-.32,3.22-.32,1.72,0,3.26,.16,4.64,.47,1.37,.32,2.54,.84,3.5,1.57s1.7,1.68,2.21,2.86c.52,1.17,.77,2.61,.77,4.3v12.84c-.52,.11-1.6,.26-3.24,.45-1.65,.19-3.79,.28-6.42,.28-2.15,0-3.89-.19-5.22-.58s-2.37-.9-3.11-1.55c-.75-.64-1.25-1.38-1.5-2.21-.26-.83-.39-1.69-.39-2.58,0-1.12,.17-2.12,.52-3.01,.34-.89,.9-1.63,1.67-2.23,.77-.6,1.8-1.07,3.07-1.4,1.27-.33,2.84-.49,4.7-.49,1.29,0,2.46,.03,3.5,.09,1.05,.06,1.74,.11,2.08,.17v-.21c0-.46-.04-.89-.13-1.29-.23-1.35-.85-2.37-1.87-3.07-1.02-.7-2.53-1.05-4.53-1.05Zm6.49,8.72c-.09-.03-.3-.06-.64-.09-.34-.03-.76-.06-1.25-.11-.49-.04-1.01-.08-1.57-.11-.56-.03-1.09-.04-1.61-.04-2.15,0-3.69,.33-4.62,.99-.93,.66-1.4,1.68-1.4,3.05,0,.57,.09,1.1,.26,1.59,.17,.49,.49,.9,.94,1.25s1.07,.61,1.85,.79c.77,.19,1.75,.28,2.92,.28,1.46,0,2.61-.06,3.44-.17,.83-.11,1.39-.21,1.68-.3v-7.13Z"/><path class="cls-2" d="M99.94,20.12c-.72,0-1.35,.05-1.89,.15-.54,.1-1.01,.21-1.4,.34s-.69,.26-.92,.39c-.23,.13-.39,.22-.47,.28v17.35h-4.42V19.01c.09-.09,.35-.26,.79-.54,.44-.27,1.05-.56,1.8-.86,.76-.3,1.65-.57,2.68-.82,1.03-.24,2.19-.37,3.48-.37,1.15,0,2.08,.07,2.81,.21,.73,.14,1.31,.33,1.74,.56,.8,.4,1.2,.99,1.2,1.76,0,.54-.12,1-.34,1.37-.23,.37-.43,.63-.6,.77-.29-.2-.84-.41-1.68-.64-.83-.23-1.76-.34-2.79-.34Zm16.8-.3c-.83,0-1.57,.07-2.21,.21-.64,.14-1.2,.31-1.68,.49-.47,.19-.87,.39-1.18,.6s-.57,.39-.77,.54c-.32-.2-.59-.49-.82-.86-.23-.37-.34-.8-.34-1.29s.14-.89,.41-1.22c.27-.33,.64-.61,1.09-.84,.49-.23,1.16-.45,2.02-.67,.86-.21,1.93-.32,3.22-.32,1.72,0,3.27,.16,4.64,.47,1.37,.32,2.54,.84,3.5,1.57s1.7,1.68,2.21,2.86c.52,1.17,.77,2.61,.77,4.3v12.84c-.52,.11-1.6,.26-3.24,.45-1.65,.19-3.79,.28-6.42,.28-2.15,0-3.89-.19-5.22-.58s-2.37-.9-3.11-1.55c-.74-.64-1.25-1.38-1.5-2.21-.26-.83-.39-1.69-.39-2.58,0-1.12,.17-2.12,.52-3.01,.34-.89,.9-1.63,1.68-2.23,.77-.6,1.8-1.07,3.07-1.4,1.27-.33,2.84-.49,4.7-.49,1.29,0,2.45,.03,3.5,.09,1.05,.06,1.74,.11,2.08,.17v-.21c0-.46-.04-.89-.13-1.29-.23-1.35-.85-2.37-1.87-3.07-1.02-.7-2.53-1.05-4.53-1.05Zm6.49,8.72c-.09-.03-.3-.06-.65-.09-.34-.03-.76-.06-1.25-.11-.49-.04-1.01-.08-1.57-.11-.56-.03-1.1-.04-1.61-.04-2.15,0-3.69,.33-4.62,.99-.93,.66-1.4,1.68-1.4,3.05,0,.57,.09,1.1,.26,1.59,.17,.49,.49,.9,.94,1.25s1.07,.61,1.85,.79c.77,.19,1.75,.28,2.92,.28,1.46,0,2.61-.06,3.44-.17,.83-.11,1.39-.21,1.68-.3v-7.13Zm31.87,10.09c-.11,.03-.39,.07-.84,.13-.44,.06-1.02,.12-1.72,.19-.7,.07-1.53,.14-2.47,.19-.94,.06-1.98,.09-3.09,.09-2.29,0-4.28-.28-5.97-.84-1.69-.56-3.09-1.35-4.21-2.38-1.12-1.03-1.95-2.28-2.49-3.74-.54-1.46-.82-3.09-.82-4.9s.26-3.26,.77-4.62c.52-1.36,1.22-2.51,2.1-3.44,.89-.93,1.94-1.64,3.16-2.13,1.22-.49,2.54-.73,3.97-.73,1.17,0,2.18,.14,3.03,.43,.84,.29,1.55,.62,2.13,1.01,.57,.39,1.02,.77,1.33,1.14,.32,.37,.53,.64,.64,.82V9c0-1.35,.79-2.02,2.36-2.02,.49,0,.92,.06,1.31,.17,.39,.11,.65,.2,.79,.26v31.23Zm-16.97-10.91c0,1.17,.16,2.26,.47,3.24,.32,.99,.81,1.84,1.48,2.56,.67,.72,1.53,1.27,2.58,1.65s2.28,.58,3.72,.58c1.26,0,2.23-.06,2.9-.17,.67-.11,1.12-.21,1.35-.3v-8.03c0-1-.13-1.93-.39-2.79-.26-.86-.64-1.61-1.16-2.25-.52-.64-1.15-1.15-1.91-1.5-.76-.36-1.65-.54-2.68-.54-2.09,0-3.67,.67-4.75,2.02-1.07,1.35-1.61,3.19-1.61,5.54Zm29.3-18.04c0,.75-.27,1.38-.82,1.91-.54,.53-1.2,.79-1.98,.79s-1.39-.26-1.93-.79c-.54-.53-.82-1.17-.82-1.91s.27-1.38,.82-1.91c.54-.53,1.19-.79,1.93-.79s1.43,.27,1.98,.79c.54,.53,.82,1.17,.82,1.91Zm-4.98,9.41c0-.72,.21-1.23,.62-1.55,.42-.31,.99-.47,1.74-.47,.49,0,.92,.05,1.31,.15s.65,.18,.79,.24v21.18h-4.47V19.09Zm27.15,0c0-.69,.2-1.2,.6-1.52,.4-.33,.97-.49,1.72-.49,.49,0,.92,.06,1.31,.17,.39,.11,.65,.2,.79,.26v21.13c-.2,.06-.55,.11-1.05,.17-.5,.06-1.11,.12-1.83,.19-.72,.07-1.5,.13-2.36,.17-.86,.04-1.73,.06-2.62,.06-2.61,0-4.72-.32-6.34-.95-1.62-.63-2.9-1.55-3.84-2.75-1.17-1.52-1.76-3.54-1.76-6.06v-10.4c0-.69,.2-1.2,.6-1.52,.4-.33,.97-.49,1.72-.49,.49,0,.92,.06,1.31,.17,.39,.11,.65,.2,.79,.26v11.51c0,2.18,.55,3.81,1.65,4.9,1.1,1.09,2.97,1.63,5.61,1.63,1,0,1.81-.04,2.43-.11,.62-.07,1.04-.14,1.27-.19V19.09Zm19.85,.73c-1.86,0-3.18,.26-3.95,.77s-1.16,1.25-1.16,2.19c0,.77,.33,1.36,.99,1.76,.66,.4,1.65,.7,2.96,.9l3.69,.52c2.75,.4,4.7,1.12,5.86,2.17,1.16,1.05,1.74,2.41,1.74,4.1,0,2.06-.8,3.74-2.41,5.05-1.6,1.3-4.05,1.95-7.35,1.95-1.52,0-2.89-.12-4.1-.37-1.22-.24-2.25-.52-3.11-.82-.86-.3-1.54-.6-2.04-.9-.5-.3-.81-.49-.92-.58l1.76-3.09c.11,.09,.39,.25,.84,.49,.44,.24,1.02,.5,1.74,.77,.72,.27,1.56,.51,2.53,.71,.97,.2,2.06,.3,3.26,.3,1.63,0,2.89-.22,3.78-.67,.89-.44,1.33-1.18,1.33-2.21,0-.83-.32-1.47-.97-1.91-.64-.44-1.81-.78-3.5-1.01l-2.96-.43c-2.41-.34-4.27-1.01-5.58-2-1.32-.99-1.98-2.44-1.98-4.36,0-.89,.16-1.73,.47-2.53,.31-.8,.84-1.51,1.57-2.13,.73-.62,1.69-1.11,2.88-1.48,1.19-.37,2.66-.56,4.4-.56,1.98,0,3.55,.16,4.72,.47,1.17,.32,2.05,.62,2.62,.9,1.17,.6,1.76,1.33,1.76,2.19,0,.57-.16,1.04-.47,1.4-.32,.36-.63,.64-.94,.84-.06-.06-.25-.22-.58-.49-.33-.27-.79-.55-1.4-.84-.6-.29-1.36-.54-2.28-.77-.92-.23-1.99-.34-3.22-.34Z"/></svg>